<svg xmlns="http://www.w3.org/2000/svg" viewBox="0 0 65.62 20"><defs><style>.cls-1{fill-rule:evenodd;}.cls-2{font-size:14px;font-family:HiraginoSans-W1-83pv-RKSJ-H, Hiragino Sans;}</style></defs><g id="Layer_2" data-name="Layer 2"><g id="footer"><path class="cls-1" d="M7,18a1.5,1.5,0,0,1,0,.37,2,2,0,0,1-.25.64A2,2,0,0,1,5,20c-1.82,0-2.53-.89-3.43-3.13C1,15.36.68,15,0,15V13c1.82,0,2.53.9,3.43,3.13C4,17.65,4.32,18,5,18c0-.29,0-.54,0-.89a7.52,7.52,0,0,1,0-1.2,2,2,0,0,1,.38-1.15,6.33,6.33,0,0,1-4.6-3.12l-.32-.76A9.58,9.58,0,0,1,0,7.76,5.93,5.93,0,0,1,1.19,4.15,5.62,5.62,0,0,1,1.52.66L1.7.22,2.14.08l.22,0A5.78,5.78,0,0,1,6.11,1.26a13.28,13.28,0,0,1,3-.33,13.07,13.07,0,0,1,2.67.27A5.71,5.71,0,0,1,15.4,0a1,1,0,0,1,.22.05l.45.14.18.44a5.89,5.89,0,0,1,.37,3.21A5.93,5.93,0,0,1,18,7.76a11.28,11.28,0,0,1-.35,3.14l-.28.75c-.71,1.63-2.3,2.64-4.74,3.13A1.93,1.93,0,0,1,13,16v2s0,.06,0,.07,0,.64,0,1.93a1.89,1.89,0,0,1-1.8-1.07A2,2,0,0,1,11,18V16c0-.08,0-.09-.21-.29A2.17,2.17,0,0,1,10,14v-.9l.9-.09c2.68-.27,4.14-1,4.62-2.1l.23-.62A9.48,9.48,0,0,0,16,7.76a4,4,0,0,0-1.18-2.9l-.42-.42.17-.57a3.39,3.39,0,0,0,0-1.8l-.08,0a7.19,7.19,0,0,0-2,1l-.37.24-.43-.1a10.74,10.74,0,0,0-2.62-.31,11.16,11.16,0,0,0-2.91.37l-.44.12-.38-.26A7.38,7.38,0,0,0,3.28,2.1a.53.53,0,0,0-.12,0A3.21,3.21,0,0,0,3.24,4l.24.59-.43.47a3.81,3.81,0,0,0-1,2.7,7.57,7.57,0,0,0,.32,2.4l.27.62c.65,1.22,2,2,4.52,2.23L8,13.1V14a2.17,2.17,0,0,1-.79,1.71C7,15.91,7,15.92,7,16l0,.19a8,8,0,0,0,0,.87c0,.3,0,.54,0,.79C7,17.9,7,17.93,7,18Z"/><text class="cls-2" transform="translate(19.5 14.64)">GitHub</text></g></g></svg>