<svg xmlns="http://www.w3.org/2000/svg" viewBox="0 0 159.85 34.19"><defs><style>.cls-1{fill:#f2f2f2;}</style></defs><g id="Layer_2" data-name="Layer 2"><g id="header"><path class="cls-1" d="M1.4,2.85q0-.42,0-.84a1.1,1.1,0,0,1,1-1.07C5.51.56,8.32,0,8.59,0A3.63,3.63,0,0,1,9.87,1a1.11,1.11,0,0,1,.25,1c-.56,2.21-2.06,8.43-2.69,11.2l.26.11c2.76-3.21,5.22-4.2,6.66-4.31a1,1,0,0,1,.35,0,4.73,4.73,0,0,1,2.6,2.05,2.61,2.61,0,0,1,.32,1.4A42.15,42.15,0,0,1,15.35,22c-.07.15,0,.29.15.29a5,5,0,0,0,.81-.09,1.11,1.11,0,0,1,1.29,1c0,.23,0,.46,0,.69A1.1,1.1,0,0,1,16.79,25a28.75,28.75,0,0,1-5.76.56,2.87,2.87,0,0,1-1.23-1,1.05,1.05,0,0,1-.16-.94c.54-1.86,1.3-4.61,1.54-5.58A29.26,29.26,0,0,0,12,14.4a.68.68,0,0,0-.65-.69c-1.69,0-4.47,3.78-5,6-.26,1.1-.76,3.2-1.12,4.68a1.11,1.11,0,0,1-1.06.84c-1,0-2,0-3.06,0A1.1,1.1,0,0,1,0,23.9C1,19.66,3,10,4,5.25A1.1,1.1,0,0,0,2.84,3.92l-.28,0A1.1,1.1,0,0,1,1.4,2.85Z"/><path class="cls-1" d="M27.59,13.64c3-3.52,5.29-4.61,6.9-4.71a1.56,1.56,0,0,1,.31,0,5.49,5.49,0,0,1,3.12,2.75,3.42,3.42,0,0,1,.36,1.51,20.45,20.45,0,0,1-1.08,5.54c-.82,2.42-3.24,6.84-7.41,6.84a8.12,8.12,0,0,1-2.76-.4A1.1,1.1,0,0,0,25.6,26l-1.37,7.24a1.11,1.11,0,0,1-1.05.9c-1,0-1.94,0-2.95,0a1.09,1.09,0,0,1-1.09-1.28c1-5.92,2.25-13.14,3.18-18.7a1.11,1.11,0,0,0-1-1.28l-.39,0a1.11,1.11,0,0,1-1-1.11v-.89a1.11,1.11,0,0,1,1-1.1C24.46,9.34,25.71,9,25.94,9a3.06,3.06,0,0,1,1.48,1,1.1,1.1,0,0,1,.25.89c-.12.75-.3,1.75-.47,2.66Zm4.25-.18c-1.44,0-4.64,3.6-5,5-.11.61-.26,1.53-.39,2.36A1.1,1.1,0,0,0,27,22a3.13,3.13,0,0,0,1.64.48c1,0,2.05-1.08,2.66-2.48a16.72,16.72,0,0,0,1.37-5.33C32.67,14,32.42,13.46,31.84,13.46Z"/><path class="cls-1" d="M39.93,11.89V11A1.09,1.09,0,0,1,40.84,10c2.48-.43,4.87-1,5.26-1a2.65,2.65,0,0,1,1.23.88,1.08,1.08,0,0,1,.25.88c-.11.74-.26,1.67-.4,2.52l.36.07C50.14,10.1,52.7,9.11,54,9a.94.94,0,0,1,.29,0,4.18,4.18,0,0,1,2.52,1.89,2.14,2.14,0,0,1,.25,1c0,.26,0,.76-.07,1.19l.29.07c2.44-3.17,4.79-4,5.93-4.09a.93.93,0,0,1,.29,0,4.47,4.47,0,0,1,2.78,2.25,3,3,0,0,1,.28,1.26c0,1.44-.83,5-2.08,9.43a.13.13,0,0,0,.1.22,5.66,5.66,0,0,0,.89-.11,1.1,1.1,0,0,1,1.29,1l.06.65A1.12,1.12,0,0,1,66,24.92a21.43,21.43,0,0,1-5.71.64c-.17,0-.73-.51-1.1-1.08a1.06,1.06,0,0,1-.12-.85c.52-1.95,1.13-4.56,1.4-5.6a26.91,26.91,0,0,0,.76-3.78.68.68,0,0,0-.69-.72c-1.55,0-4.17,3.78-4.71,6-.37,1.55-.76,3.21-1.11,4.8a1.1,1.1,0,0,1-1.07.86c-.93,0-1.86,0-2.78,0a1.09,1.09,0,0,1-1.07-1.34c.45-2,1-4.52,1.24-5.53a39.9,39.9,0,0,0,.79-4.21.63.63,0,0,0-.61-.65c-1.66,0-4.32,4.07-4.86,6.23-.33,1.25-.73,3.12-1,4.61a1.1,1.1,0,0,1-1.07.87c-.94,0-1.89,0-2.84,0a1.1,1.1,0,0,1-1.08-1.32c.57-2.76,1.41-6.79,2-9.61A1.11,1.11,0,0,0,41.17,13h-.09A1.11,1.11,0,0,1,39.93,11.89Z"/><path class="cls-1" d="M73,11.7A9.63,9.63,0,0,1,79.68,9c3.42,0,5,2.33,5.18,4.36a1.31,1.31,0,0,1,0,.28,6.24,6.24,0,0,1-2,3.75.94.94,0,0,1-.22.12,17.44,17.44,0,0,1-7.73,1.32A4.45,4.45,0,0,0,74.79,20,2.07,2.07,0,0,0,77,22.1a15.14,15.14,0,0,0,4.67-.89,1.1,1.1,0,0,1,1.44.73l.15.6a1.1,1.1,0,0,1-.63,1.29,20,20,0,0,1-8.22,1.76,5.26,5.26,0,0,1-5.36-5.32A12,12,0,0,1,73,11.7Zm3.63.86a5.74,5.74,0,0,0-1.07,2.1,1.09,1.09,0,0,0,1.16,1.42,5.68,5.68,0,0,0,1.93-.53,1.57,1.57,0,0,0,.9-1.55c0-1-.54-2.23-1.44-2.23A1.75,1.75,0,0,0,76.66,12.56Z"/><path class="cls-1" d="M86.38,11.84c0-.31,0-.61,0-.92a1.11,1.11,0,0,1,1-1.07C89.92,9.51,92.86,9,93.44,9a3.58,3.58,0,0,1,1.31,1A1.07,1.07,0,0,1,95,11c-.7,3.25-2.14,9.79-2.41,11.05,0,.14,0,.29.11.29a7.66,7.66,0,0,0,1.12-.14,1.11,1.11,0,0,1,1.29,1l.06.66A1.09,1.09,0,0,1,94.35,25a24.93,24.93,0,0,1-5.77.56,3.59,3.59,0,0,1-1.38-1.13,1.09,1.09,0,0,1-.22-.92c.63-3,1.39-6.58,1.94-9.22a1.11,1.11,0,0,0-1-1.33h-.41A1.11,1.11,0,0,1,86.38,11.84ZM96.61,3.71a3.1,3.1,0,0,1-3.17,3.2,3,3,0,0,1-3-2.91,3.13,3.13,0,0,1,3.28-3A2.64,2.64,0,0,1,96.61,3.71Z"/><path class="cls-1" d="M107.55,12.81c0-.14,0-.32-.22-.43a3.51,3.51,0,0,0-3.16,0,1.27,1.27,0,0,0-.73,1.18c0,.94,1.34,1.3,2.78,1.8,2.34.9,3.92,2.06,3.92,4.29a5.37,5.37,0,0,1-2.84,4.82,10.83,10.83,0,0,1-5.37,1.15A16.52,16.52,0,0,1,98,25.18a1.08,1.08,0,0,1-.81-1.13c.07-1.17.14-2.33.22-3.43a1.1,1.1,0,0,1,1-1l.73-.05a1.11,1.11,0,0,1,1.15.93l.21,1.23c0,.14.07.32.21.39a4,4,0,0,0,2,.51,3.43,3.43,0,0,0,1.62-.29,1.32,1.32,0,0,0,.61-1.15c0-.9-.76-1.34-2.34-2-2.34-.86-4.43-2-4.43-4.57s2.09-4.1,3.46-4.75a12.29,12.29,0,0,1,5-.9,13,13,0,0,1,3.4.43,1.09,1.09,0,0,1,.79,1.13c-.07,1-.14,2.08-.2,3.06a1.1,1.1,0,0,1-1,1l-.8,0a1.09,1.09,0,0,1-1.15-.94Z"/><path class="cls-1" d="M120.87,21.78a20.08,20.08,0,0,0,2.76-.21,1.11,1.11,0,0,1,1.26,1.09c0,.28,0,.57,0,.85a1.09,1.09,0,0,1-.8,1,25.22,25.22,0,0,1-6.73,1,4.35,4.35,0,0,1-3.24-2.49,2.48,2.48,0,0,1-.18-1c0-.83.58-3.89.72-4.64s.47-2.18.72-3.35a1.1,1.1,0,0,0-1.08-1.33H114A1.11,1.11,0,0,1,113,11.46c.06-.3.12-.61.19-.9a1.1,1.1,0,0,1,1-.87l2-.12a.44.44,0,0,0,.32-.32c.2-.87.43-1.78.64-2.58a1.08,1.08,0,0,1,.69-.75,18.12,18.12,0,0,1,4.75-1c.08,0,.11,0,.08.15-.1.54-.39,2-.63,3.13a1.1,1.1,0,0,0,1.09,1.32l2.35,0a1.1,1.1,0,0,1,1.09,1.33L126.26,12a1.11,1.11,0,0,1-1.08.86l-3.26,0a1.1,1.1,0,0,0-1.09.88c-.13.64-.3,1.42-.47,2.18a45.23,45.23,0,0,0-.82,4.93C119.54,21.38,120,21.78,120.87,21.78Z"/><path class="cls-1" d="M131.35,11.7A9.61,9.61,0,0,1,138,9c3.42,0,5,2.33,5.18,4.36a1.31,1.31,0,0,1,0,.28,6.24,6.24,0,0,1-2,3.75.94.94,0,0,1-.22.12,17.44,17.44,0,0,1-7.73,1.32,4.45,4.45,0,0,0-.11,1.15,2.07,2.07,0,0,0,2.23,2.12,15.14,15.14,0,0,0,4.67-.89,1.1,1.1,0,0,1,1.44.73l.15.6a1.1,1.1,0,0,1-.63,1.29,20,20,0,0,1-8.22,1.76,5.26,5.26,0,0,1-5.36-5.32A12,12,0,0,1,131.35,11.7Zm3.63.86a5.89,5.89,0,0,0-1.08,2.1,1.1,1.1,0,0,0,1.17,1.42,5.68,5.68,0,0,0,1.93-.53,1.57,1.57,0,0,0,.9-1.55c0-1-.54-2.23-1.44-2.23A1.75,1.75,0,0,0,135,12.56Z"/><path class="cls-1" d="M144.89,11.9c0-.28,0-.57,0-.86a1.1,1.1,0,0,1,1-1.09c3-.45,4.95-.95,5.28-.95a3.42,3.42,0,0,1,1.28.94,1.05,1.05,0,0,1,.27.91c-.12.79-.39,2.09-.69,3.44l.43.11c2.45-3.71,4-5.4,5.26-5.4a4.56,4.56,0,0,1,1.47.25,1.09,1.09,0,0,1,.71,1.16,13.7,13.7,0,0,1-1.12,3.93,1.1,1.1,0,0,1-1.25.57,7.15,7.15,0,0,0-1.36-.26c-1.51,0-4.14,3.1-4.75,5.44-.24,1.07-.62,2.83-1,4.27a1.12,1.12,0,0,1-1.06.85c-1,0-2,0-3,0a1.11,1.11,0,0,1-1.09-1.32c.55-2.71,1.37-6.73,1.93-9.61A1.11,1.11,0,0,0,146,13h0A1.1,1.1,0,0,1,144.89,11.9Z"/></g></g></svg>