<svg xmlns="http://www.w3.org/2000/svg" viewBox="0 0 56.73 20"><defs><style>.cls-1{fill-rule:evenodd;}.cls-2{font-size:14px;font-family:HiraginoSans-W1-83pv-RKSJ-H, Hiragino Sans;}</style></defs><g id="Layer_2" data-name="Layer 2"><g id="footer"><path class="cls-1" d="M13.46,13.6A4.94,4.94,0,0,1,10,15a5,5,0,1,1,3-9V5h2v5c0,2.47.19,3,1,3,1.3,0,2-.62,2-3,0-5.29-2.65-8-8-8a8,8,0,1,0,4.69,14.48l1.17,1.62A10,10,0,1,1,10,0c6.46,0,10,3.62,10,10,0,3.54-1.64,5-4,5A2.4,2.4,0,0,1,13.46,13.6ZM10,13a3,3,0,1,0-3-3A3,3,0,0,0,10,13Z"/><text class="cls-2" transform="translate(22.5 14.64)">email</text></g></g></svg>