<svg xmlns="http://www.w3.org/2000/svg" viewBox="0 0 29.08 27.63"><defs><style>.cls-1,.cls-3{fill:#e6e6e6;}.cls-1,.cls-2{fill-rule:evenodd;}.cls-2{fill:none;}</style></defs><g id="Layer_2" data-name="Layer 2"><g id="header"><g id="Dropdown_over"><path class="cls-1" d="M29.08,23.26h0V4.36A4.36,4.36,0,0,0,24.72,0H4.36A4.36,4.36,0,0,0,0,4.36v18.9H0a4.37,4.37,0,0,0,4.36,4.37H24.72A4.37,4.37,0,0,0,29.08,23.26ZM4.36,26.17a2.91,2.91,0,0,1-2.91-2.91V4.36A2.91,2.91,0,0,1,4.36,1.45H24.72a2.92,2.92,0,0,1,2.91,2.91v18.9a2.91,2.91,0,0,1-2.91,2.91Z"/><path class="cls-2" d="M27.63,23.26V4.36a2.92,2.92,0,0,0-2.91-2.91H4.36A2.91,2.91,0,0,0,1.45,4.36h0v18.9h0a2.91,2.91,0,0,0,2.91,2.91H24.72A2.91,2.91,0,0,0,27.63,23.26Z"/><polygon class="cls-3" points="9.01 11.63 20.64 11.63 14.82 18.9 9.01 11.63"/></g></g></g></svg>