<svg xmlns="http://www.w3.org/2000/svg" viewBox="0 0 65.56 19"><defs><style>.cls-1{fill-rule:evenodd;}.cls-2{font-size:14px;font-family:HiraginoSans-W1-83pv-RKSJ-H, Hiragino Sans;}</style></defs><g id="Layer_2" data-name="Layer 2"><g id="footer"><path class="cls-1" d="M19.65,2.51l1.45.16L20.45,4l-1,1.86a1.24,1.24,0,0,1-.2.4l-.19.27a1.05,1.05,0,0,1-.08.13V9c0,6.11-6.08,10-11.83,10a14.46,14.46,0,0,1-3.09-.27A4.6,4.6,0,0,1,.59,16.42L0,15.14,1.43,15a12.32,12.32,0,0,0,3.29-.68C2.35,14,1,13,1,11.05v-1H2.08A3.86,3.86,0,0,0,2.69,10,5.35,5.35,0,0,1,0,5V4.8A5.93,5.93,0,0,1,.4,2.23,4.51,4.51,0,0,1,1.32.82L2.1,0l.75.84C5.33,3.6,7.79,5.28,10.29,5.48A4.46,4.46,0,0,1,14.91,1a4.69,4.69,0,0,1,3.22,1.27C18.6,2.37,19.11,2.45,19.65,2.51ZM17.44,4.17l-.32-.07-.22-.24a2.58,2.58,0,0,0-4.53,1.73,4.78,4.78,0,0,1,0,.57,1.5,1.5,0,0,1-1.52,1.47c-3.1,0-5.89-1.66-8.62-4.5A5.28,5.28,0,0,0,2,4.82v.23s.83,3.17,2.8,3.79l.2.22V9.8c.49.88-.35,1.72-1.58,2.09A19.91,19.91,0,0,0,7,13.05H8v1c0,1.43-1.74,2.55-4.38,3.14A12.5,12.5,0,0,0,7,17.54c4.89,0,10.06-3.2,10.06-8v-3a1.83,1.83,0,0,1,.23-.84,2.8,2.8,0,0,1,.2-.32l.11-.17.09-.16L18,4.3Z"/><text class="cls-2" transform="translate(23.05 14.14)">twitter</text></g></g></svg>